<svg xmlns="http://www.w3.org/2000/svg" width="680" height="420" viewBox="0 0 680 420" role="img" aria-labelledby="title desc">
  <title id="title">HiTeam collaboration board</title>
  <desc id="desc">A dashboard-style visual showing student project cards, skill tags, and matching signals.</desc>
  <rect width="680" height="420" rx="28" fill="#f4f7fb"/>
  <rect x="38" y="44" width="604" height="332" rx="24" fill="#ffffff" stroke="#d8e0ea" stroke-width="2"/>
  <rect x="70" y="78" width="164" height="266" rx="18" fill="#102a43"/>
  <circle cx="105" cy="116" r="18" fill="#38bdf8"/>
  <rect x="134" y="102" width="64" height="10" rx="5" fill="#e0f2fe"/>
  <rect x="134" y="122" width="42" height="8" rx="4" fill="#93c5fd"/>
  <rect x="93" y="164" width="118" height="18" rx="9" fill="#14b8a6"/>
  <rect x="93" y="202" width="88" height="18" rx="9" fill="#f59e0b"/>
  <rect x="93" y="240" width="104" height="18" rx="9" fill="#60a5fa"/>
  <rect x="93" y="292" width="84" height="20" rx="10" fill="#e2e8f0"/>
  <rect x="264" y="80" width="318" height="72" rx="18" fill="#eff6ff" stroke="#cbd5e1"/>
  <circle cx="302" cy="116" r="22" fill="#0f766e"/>
  <path d="M294 121c5-16 18-16 23 0" stroke="#ccfbf1" stroke-width="5" stroke-linecap="round" fill="none"/>
  <rect x="338" y="98" width="144" height="12" rx="6" fill="#0f172a"/>
  <rect x="338" y="122" width="204" height="10" rx="5" fill="#64748b"/>
  <rect x="498" y="98" width="52" height="24" rx="12" fill="#dcfce7"/>
  <text x="513" y="115" font-family="Arial, sans-serif" font-size="14" font-weight="700" fill="#166534">92</text>
  <rect x="264" y="174" width="318" height="72" rx="18" fill="#fff7ed" stroke="#fed7aa"/>
  <circle cx="302" cy="210" r="22" fill="#ea580c"/>
  <path d="M293 212l9-11 11 15" stroke="#ffedd5" stroke-width="5" stroke-linecap="round" stroke-linejoin="round" fill="none"/>
  <rect x="338" y="192" width="122" height="12" rx="6" fill="#0f172a"/>
  <rect x="338" y="216" width="184" height="10" rx="5" fill="#64748b"/>
  <rect x="498" y="192" width="52" height="24" rx="12" fill="#fee2e2"/>
  <text x="513" y="209" font-family="Arial, sans-serif" font-size="14" font-weight="700" fill="#991b1b">78</text>
  <rect x="264" y="268" width="318" height="72" rx="18" fill="#f0fdfa" stroke="#99f6e4"/>
  <circle cx="302" cy="304" r="22" fill="#0369a1"/>
  <path d="M291 305h22M302 294v22" stroke="#e0f2fe" stroke-width="5" stroke-linecap="round"/>
  <rect x="338" y="286" width="156" height="12" rx="6" fill="#0f172a"/>
  <rect x="338" y="310" width="172" height="10" rx="5" fill="#64748b"/>
  <rect x="498" y="286" width="52" height="24" rx="12" fill="#dbeafe"/>
  <text x="513" y="303" font-family="Arial, sans-serif" font-size="14" font-weight="700" fill="#1d4ed8">85</text>
  <path d="M230 172c16 14 24 32 24 54s-8 40-24 54" stroke="#94a3b8" stroke-width="4" stroke-linecap="round" fill="none"/>
  <circle cx="230" cy="172" r="6" fill="#38bdf8"/>
  <circle cx="230" cy="280" r="6" fill="#14b8a6"/>
</svg>
